<svg width="22" height="22" viewBox="0 0 22 22" fill="none" xmlns="http://www.w3.org/2000/svg">
<path d="M14.2178 2.59375H7.78283C5.50033 2.59375 4.99616 3.73042 4.70283 5.12375L3.66699 10.0829H18.3337L17.2978 5.12375C17.0045 3.73042 16.5003 2.59375 14.2178 2.59375Z" stroke="#434244" stroke-width="2" stroke-linecap="round" stroke-linejoin="round"/>
<path d="M20.157 18.168C20.2578 19.2405 19.3962 20.1663 18.2962 20.1663H16.5728C15.5828 20.1663 15.4453 19.7447 15.2712 19.2222L15.0878 18.6722C14.8312 17.9205 14.6662 17.4163 13.3462 17.4163H8.65285C7.33285 17.4163 7.14035 17.9847 6.91118 18.6722L6.72785 19.2222C6.55368 19.7447 6.41618 20.1663 5.42618 20.1663H3.70285C2.60285 20.1663 1.74118 19.2405 1.84201 18.168L2.35535 12.5855C2.48368 11.2105 2.74951 10.083 5.15118 10.083H16.8478C19.2495 10.083 19.5153 11.2105 19.6437 12.5855L20.157 18.168Z" stroke="#434244" stroke-width="2" stroke-linecap="round" stroke-linejoin="round"/>
<path d="M3.66667 7.33301H2.75" stroke="#434244" stroke-width="2" stroke-linecap="round" stroke-linejoin="round"/>
<path d="M19.2497 7.33301H18.333" stroke="#434244" stroke-width="2" stroke-linecap="round" stroke-linejoin="round"/>
<path d="M11 2.75V4.58333" stroke="#434244" stroke-width="2" stroke-linecap="round" stroke-linejoin="round"/>
<path d="M9.625 4.58301H12.375" stroke="#434244" stroke-width="2" stroke-linecap="round" stroke-linejoin="round"/>
<path d="M5.5 13.75H8.25" stroke="#434244" stroke-width="2" stroke-linecap="round" stroke-linejoin="round"/>
<path d="M13.75 13.75H16.5" stroke="#434244" stroke-width="2" stroke-linecap="round" stroke-linejoin="round"/>
</svg>
