<svg width="11" height="13" viewBox="0 0 11 13" fill="none" xmlns="http://www.w3.org/2000/svg">
<path fill-rule="evenodd" stroke="#141414" stroke-width="0.8" fill="#141414" stroke-linecap="round" stroke-linejoin="round" clip-rule="evenodd" d="M5.50005 0.0498047C5.74858 0.0498047 5.95005 0.251275 5.95005 0.499805V7.4134L8.1819 5.1816C8.3576 5.00586 8.6425 5.00586 8.8182 5.1816C8.994 5.35734 8.994 5.64226 8.8182 5.818L5.81825 8.818C5.64251 8.99373 5.35759 8.99373 5.18185 8.818L2.18185 5.818C2.00611 5.64226 2.00611 5.35734 2.18185 5.1816C2.35759 5.00586 2.64251 5.00586 2.81825 5.1816L5.05005 7.4134V0.499805C5.05005 0.251275 5.25152 0.0498047 5.50005 0.0498047ZM0.5 8.99981C0.77614 8.99981 1 9.22371 1 9.49981V10.9998C1 11.5537 1.44565 11.9998 1.99635 11.9998H9.0012C9.5529 11.9998 10 11.5526 10 10.9998V9.49981C10 9.22371 10.2239 8.99981 10.5 8.99981C10.7761 8.99981 11 9.22371 11 9.49981V10.9998C11 12.1039 10.1062 12.9998 9.0012 12.9998H1.99635C0.89019 12.9998 0 12.1028 0 10.9998V9.49981C0 9.22371 0.22386 8.99981 0.5 8.99981Z" />
</svg>
