<svg width="34" height="34" viewBox="0 0 34 34" fill="none" xmlns="http://www.w3.org/2000/svg">
<path d="M24 32H8.55228C7.54259 32 7.03775 32 6.80397 31.8003C6.60113 31.6271 6.49348 31.3672 6.51441 31.1013C6.53853 30.7948 6.89552 30.4378 7.60948 29.7239L21.781 15.5523C22.4411 14.8923 22.7711 14.5622 23.1516 14.4386C23.4864 14.3298 23.847 14.3298 24.1817 14.4386C24.5622 14.5622 24.8923 14.8923 25.5523 15.5523L32 22V24M24 32C26.8003 32 28.2004 32 29.27 31.455C30.2108 30.9757 30.9757 30.2108 31.455 29.27C32 28.2004 32 26.8003 32 24M24 32H10C7.19974 32 5.79961 32 4.73005 31.455C3.78924 30.9757 3.02433 30.2108 2.54497 29.27C2 28.2004 2 26.8003 2 24V10C2 7.19974 2 5.79961 2.54497 4.73005C3.02433 3.78924 3.78924 3.02433 4.73005 2.54497C5.79961 2 7.19974 2 10 2H24C26.8003 2 28.2004 2 29.27 2.54497C30.2108 3.02433 30.9757 3.78924 31.455 4.73005C32 5.79961 32 7.19974 32 10V24M14.5 11.1667C14.5 13.0076 13.0076 14.5 11.1667 14.5C9.32572 14.5 7.83333 13.0076 7.83333 11.1667C7.83333 9.32572 9.32572 7.83333 11.1667 7.83333C13.0076 7.83333 14.5 9.32572 14.5 11.1667Z" stroke="#A3A3A3" stroke-width="2.5" stroke-linecap="round" stroke-linejoin="round"/>
</svg>
