<svg width="244" height="72" viewBox="0 0 244 72" fill="none" xmlns="http://www.w3.org/2000/svg">
<path d="M190.212 59.7283H42.9766L44.6678 51.7944L191.912 51.79L190.212 59.7283Z" fill="#FFCA06"/>
<path d="M154.913 38.1546C153.606 36.7476 154.382 33.9379 155.057 30.7722L157.354 20.0069H166.8L168.513 11.9947H159.059L160.737 4H151.832L145.995 31.5061C145.123 35.6185 144.783 38.8321 146.575 42.2931C148.24 45.511 153.924 48.5855 161.125 46.6357L162.716 39.1968C157.834 39.8091 155.872 39.1751 154.913 38.1546Z" fill="white"/>
<path d="M79.4907 4L75.2408 23.8631H59.614L63.8509 4H54.8628L45.7744 46.6444H54.7582L57.8966 31.8665H73.5321L70.3849 46.6444H79.2902L88.3917 4H79.4907Z" fill="white"/>
<path d="M130.809 15.0088C127.692 17.6143 125.918 20.9972 124.772 26.356L120.443 46.6446H129.357L132.949 29.8214C133.821 25.887 134.449 23.4247 135.931 21.9092C137.975 19.829 140.93 19.7161 144.483 20.0071L146.196 11.995C139.932 10.4099 134.462 11.9646 130.809 15.0088Z" fill="white"/>
<path d="M200.377 11.9951H172.559L170.854 20.0072H186.991L166.805 38.941L165.166 46.6448H192.989L194.702 38.637H178.465L198.756 19.6164L200.377 11.9951Z" fill="white"/>
<path d="M106.481 11.3828C103.473 11.3828 99.3542 12.3078 95.3091 15.4735C86.1858 22.5824 81.6569 47.2701 101.246 47.2701C106.324 47.2701 111.973 45.672 115.892 42.7234L112.348 36.761C109.384 39.0322 94.4547 43.9741 96.0239 31.9147H119.366C119.366 31.9147 122.343 22.248 118.058 16.4202C114.419 11.448 107.706 11.3828 106.481 11.3828ZM112.283 24.58H97.9898C98.4911 22.6649 101.525 17.9488 107.144 18.4656C113.224 19.0215 112.283 24.58 112.283 24.58Z" fill="white"/>
<path d="M199.026 42.2151C198.324 42.2469 197.651 42.5057 197.109 42.9522C196.567 43.3988 196.186 44.0089 196.023 44.6904C195.985 44.8615 195.966 45.0363 195.966 45.2115C195.96 45.4718 196.008 45.7307 196.107 45.9718C196.205 46.2129 196.353 46.431 196.541 46.6125C196.728 46.7939 196.951 46.9348 197.196 47.0263C197.441 47.1177 197.702 47.1578 197.963 47.144C198.665 47.111 199.338 46.8519 199.881 46.4056C200.423 45.9593 200.805 45.3498 200.97 44.6687C201.004 44.5 201.022 44.3284 201.023 44.1563C201.032 43.8949 200.986 43.6345 200.888 43.3917C200.79 43.149 200.643 42.9293 200.455 42.7466C200.267 42.5639 200.043 42.4223 199.797 42.3308C199.551 42.2393 199.288 42.1999 199.026 42.2151ZM200.617 44.5992C200.468 45.2034 200.129 45.744 199.649 46.1419C199.169 46.5397 198.573 46.7737 197.95 46.8096C197.733 46.825 197.515 46.7947 197.31 46.7205C197.106 46.6464 196.919 46.5301 196.763 46.3793C196.607 46.2285 196.484 46.0466 196.403 45.8453C196.322 45.6441 196.285 45.4281 196.293 45.2115C196.294 45.0655 196.31 44.9199 196.341 44.7773C196.489 44.1759 196.826 43.6375 197.303 43.2405C197.779 42.8436 198.371 42.6091 198.991 42.5712C199.211 42.5533 199.431 42.5818 199.639 42.655C199.846 42.7281 200.035 42.8443 200.194 42.9957C200.353 43.1471 200.478 43.3304 200.561 43.5334C200.644 43.7365 200.682 43.9547 200.674 44.1736C200.663 44.3104 200.638 44.4456 200.6 44.5775L200.617 44.5992Z" fill="#6F7072"/>
<path d="M198.809 43.4785H197.754L197.248 45.8409H197.771L197.932 45.0766H198.346L198.691 45.8409H199.305L198.904 44.9941C199.072 44.9423 199.223 44.8465 199.342 44.7166C199.46 44.5867 199.541 44.4276 199.576 44.2558C199.676 43.7651 199.375 43.4785 198.809 43.4785ZM199.035 44.2862C199.013 44.3938 198.951 44.4889 198.861 44.5526C198.771 44.6162 198.661 44.6436 198.551 44.6293H198.033L198.181 43.9388H198.691C198.948 43.9519 199.083 44.0561 199.026 44.2862H199.035Z" fill="#6F7072"/>
</svg>
